<mxfile host="app.diagrams.net" modified="2021-09-09T13:12:57.041Z" agent="5.0 (Windows NT 10.0; Win64; x64) AppleWebKit/537.36 (KHTML, like Gecko) Chrome/93.0.4577.63 Safari/537.36" etag="7ROQgCOEUtuWHMjFCUra" version="15.1.1" type="github">
  <diagram id="kgpKYQtTHZ0yAKxKKP6v" name="Page-1">
    <mxGraphModel dx="1632" dy="450" grid="1" gridSize="10" guides="1" tooltips="1" connect="1" arrows="1" fold="1" page="1" pageScale="1" pageWidth="850" pageHeight="1100" math="0" shadow="0">
      <root>
        <mxCell id="0" />
        <mxCell id="1" parent="0" />
        <mxCell id="b19eHCCUPlFQnzbPp85T-15" value="" style="edgeStyle=orthogonalEdgeStyle;rounded=0;orthogonalLoop=1;jettySize=auto;html=1;" edge="1" parent="1" source="b19eHCCUPlFQnzbPp85T-1" target="b19eHCCUPlFQnzbPp85T-11">
          <mxGeometry relative="1" as="geometry" />
        </mxCell>
        <mxCell id="b19eHCCUPlFQnzbPp85T-1" value="Startup" style="rounded=0;whiteSpace=wrap;html=1;" vertex="1" parent="1">
          <mxGeometry x="80" y="30" width="120" height="60" as="geometry" />
        </mxCell>
        <mxCell id="b19eHCCUPlFQnzbPp85T-17" value="" style="edgeStyle=orthogonalEdgeStyle;rounded=0;orthogonalLoop=1;jettySize=auto;html=1;" edge="1" parent="1" source="b19eHCCUPlFQnzbPp85T-2" target="b19eHCCUPlFQnzbPp85T-6">
          <mxGeometry relative="1" as="geometry" />
        </mxCell>
        <mxCell id="b19eHCCUPlFQnzbPp85T-2" value="Readiness" style="rounded=0;whiteSpace=wrap;html=1;" vertex="1" parent="1">
          <mxGeometry x="300" y="30" width="120" height="60" as="geometry" />
        </mxCell>
        <mxCell id="b19eHCCUPlFQnzbPp85T-19" value="" style="edgeStyle=orthogonalEdgeStyle;rounded=0;orthogonalLoop=1;jettySize=auto;html=1;" edge="1" parent="1" source="b19eHCCUPlFQnzbPp85T-3" target="b19eHCCUPlFQnzbPp85T-4">
          <mxGeometry relative="1" as="geometry" />
        </mxCell>
        <mxCell id="b19eHCCUPlFQnzbPp85T-3" value="Liveness" style="rounded=0;whiteSpace=wrap;html=1;" vertex="1" parent="1">
          <mxGeometry x="530" y="30" width="120" height="60" as="geometry" />
        </mxCell>
        <mxCell id="b19eHCCUPlFQnzbPp85T-4" value="Request to verify&amp;nbsp;" style="rounded=0;whiteSpace=wrap;html=1;" vertex="1" parent="1">
          <mxGeometry x="530" y="130" width="120" height="60" as="geometry" />
        </mxCell>
        <mxCell id="b19eHCCUPlFQnzbPp85T-5" value="Verify redis" style="rounded=0;whiteSpace=wrap;html=1;" vertex="1" parent="1">
          <mxGeometry x="300" y="120" width="120" height="60" as="geometry" />
        </mxCell>
        <mxCell id="b19eHCCUPlFQnzbPp85T-18" value="" style="edgeStyle=orthogonalEdgeStyle;rounded=0;orthogonalLoop=1;jettySize=auto;html=1;" edge="1" parent="1" source="b19eHCCUPlFQnzbPp85T-6" target="b19eHCCUPlFQnzbPp85T-9">
          <mxGeometry relative="1" as="geometry" />
        </mxCell>
        <mxCell id="b19eHCCUPlFQnzbPp85T-6" value="Verify kafka" style="rounded=0;whiteSpace=wrap;html=1;" vertex="1" parent="1">
          <mxGeometry x="300" y="190" width="120" height="60" as="geometry" />
        </mxCell>
        <mxCell id="b19eHCCUPlFQnzbPp85T-8" value="Verify Memory" style="rounded=0;whiteSpace=wrap;html=1;" vertex="1" parent="1">
          <mxGeometry x="300" y="280" width="120" height="60" as="geometry" />
        </mxCell>
        <mxCell id="b19eHCCUPlFQnzbPp85T-9" value="Verify Memory" style="rounded=0;whiteSpace=wrap;html=1;" vertex="1" parent="1">
          <mxGeometry x="300" y="360" width="120" height="60" as="geometry" />
        </mxCell>
        <mxCell id="b19eHCCUPlFQnzbPp85T-16" value="" style="edgeStyle=orthogonalEdgeStyle;rounded=0;orthogonalLoop=1;jettySize=auto;html=1;" edge="1" parent="1" source="b19eHCCUPlFQnzbPp85T-10" target="b19eHCCUPlFQnzbPp85T-12">
          <mxGeometry relative="1" as="geometry" />
        </mxCell>
        <mxCell id="b19eHCCUPlFQnzbPp85T-10" value="Verify migration" style="rounded=0;whiteSpace=wrap;html=1;" vertex="1" parent="1">
          <mxGeometry x="80" y="120" width="120" height="60" as="geometry" />
        </mxCell>
        <mxCell id="b19eHCCUPlFQnzbPp85T-11" value="Initialize jobs" style="rounded=0;whiteSpace=wrap;html=1;" vertex="1" parent="1">
          <mxGeometry x="80" y="200" width="120" height="60" as="geometry" />
        </mxCell>
        <mxCell id="b19eHCCUPlFQnzbPp85T-12" value="Initialize subscribers" style="rounded=0;whiteSpace=wrap;html=1;" vertex="1" parent="1">
          <mxGeometry x="80" y="290" width="120" height="60" as="geometry" />
        </mxCell>
        <mxCell id="b19eHCCUPlFQnzbPp85T-14" value="" style="edgeStyle=orthogonalEdgeStyle;rounded=0;orthogonalLoop=1;jettySize=auto;html=1;" edge="1" parent="1" source="b19eHCCUPlFQnzbPp85T-13" target="b19eHCCUPlFQnzbPp85T-11">
          <mxGeometry relative="1" as="geometry" />
        </mxCell>
        <mxCell id="b19eHCCUPlFQnzbPp85T-13" value="Distribute lock" style="rounded=1;whiteSpace=wrap;html=1;fillColor=#f8cecc;strokeColor=#b85450;" vertex="1" parent="1">
          <mxGeometry x="-100" y="200" width="120" height="60" as="geometry" />
        </mxCell>
      </root>
    </mxGraphModel>
  </diagram>
</mxfile>
